/* XPM */
static char *result[] = {
/* columns rows colors chars-per-pixel */
"32 32 4 1 ",
"  c black",
". c #C84C0C",
"X c #FCBCB0",
"o c None",
/* pixels */
"oooooooooooooooooooooooooooooooo",
"oooooooooooooooooooooooooooooooo",
"oooooooooooooooooooooooooooooooo",
"oooooooooooooooooooooooooooooooo",
"oooooooooooooooooooooooooooooooo",
"oooooooooooooooooooooooooooooooo",
"oooooooooooooooooooooooooooooooo",
"oooooooooooooooooooooooooooooooo",
"oooooooooooooooooooooooooooooooo",
"oooooooooooooooooooooooooooooooo",
"oooooooooooooooooooooooooooooooo",
"oooooooooooooooooooooooooooooooo",
"oooooooooooooooooooooooooooooooo",
"oooooooooooooooooooooooooooooooo",
"oooooooooooooooooooooooooooooooo",
"oooooooooooooo....oooooooooooooo",
"ooooooooooooo......ooooooooooooo",
"oooooooooooo........oooooooooooo",
"ooooooooooo..........ooooooooooo",
"oooooooooo.  ......  .oooooooooo",
"ooooooooo...X .... X...ooooooooo",
"ooooooooo...X      X...ooooooooo",
"oooooooo....X X..X X....oooooooo",
"oooooooo....XXX..XXX....oooooooo",
"oooooooo................oooooooo",
"ooooooooo....XXXXXX....ooooooooo",
"ooooooooooooXXXXXXXXoooooooooooo",
"ooooooooooooXXXXXXXX  oooooooooo",
"ooooooooooo  XXXXX     ooooooooo",
"ooooooooooo   XXX      ooooooooo",
"oooooooooooo   oo     oooooooooo",
"oooooooooooooooooooooooooooooooo"
};
