/* XPM */
static char *_52641ca7fa840109305994f9e54147cSfWGjy63f3NnMBGH[] = {
/* columns rows colors chars-per-pixel */
"100 100 10 1 ",
"  c None",
". c #263627",
"X c #004012",
"o c #3B4A3C",
"O c #008024",
"+ c #00C237",
"@ c #4FA24D",
"# c #4FA34E",
"$ c #19C84B",
"% c #00FF48",
/* pixels */
"%%%%@@@@%%@%%%%%@@@@%%+.X%.++X@X+.%+.X%.++X@X%++X%+o+X@X%@%.+X@@O+.#%@%@@@@%%@%%@@@XX@XXXOXXXX%%%%@@",
"%.++%%%%@@X+%.++%%%%@%++X%+o+X@XXX%++X%+o+X@X@XXXOXXXX%%%@%+.X@@OOOO@@@%%%%@@X++@%%%%@@%%%OO@O+#.%@%",
"%+.X%.++X@X+%+.X%.++X@XXXOXXXX%%%%@XXXOXXXX%%@@%%%OO@O+#%@%++X@@@@@@%%%%.++X@X%%%%@@@@%%@%%%%O+.#%@%",
"%++X%+o+X@XX%++X%+o+X@@%%%OO@O+#.%@@%%%OO@O+#%@%.+X@@O+%%%%@@@@%%@%%%%%%+o+X@X%.++%%%%@@X++.%OOOO@@@",
"@XXXOXXXX%%%@XXXOXXXX%@%.+X@@O+.#%%@%.+X@@O+.%@%+.X@@OO%.++%%%%@@X++.%%OXXXX%%%+.X%.++X@X+.+%@@@@%%%",
"@@%%%OO@O+@.@@%%%OO@O%@%+.X@@OOOO@%@%+.X@@OOO%@%++X@@@@%+.X%.++X@X+.+%X%OO@O+#%++X%+o+X@XXXX%%%%O+.%",
"%@%.+X@@O+.@%@%.+X@@O%@%++X@@@@@@%%@%++X@@@@@@@@XXX@%%%%++X%+o+X@XXXX%@+X@@O+.@XXXOXXXX%%%%@@.+%O.+%",
"%@%+.X@@OOOO%@%+.X@@O@@@XXX@%%%%O+@@@XXX@%%%%@%%%%OO+.+@XXXOXXXX%%%%@@%.X@@OOO@@%%%OO@O+#.%@%++%OOOX",
"%@%++X@@@@@@%@%++X@@@@%%%%OO+.+%O.@%%%%OO+.+%@%+.+XO.++@@%%%OO@O+#.%@%%+X@@@@@%@%.+X@@O+.#%@%OOXX@@@",
"@@@XXX@%%%%O@@@XXX@%%@%+.+XO.++%OO@%+.+XO.++%@%++.XOOOO%@%.+X@@O+.#%@%XXX@%%%%%@%+.X@@OOOO@@@%%@@%%%",
"@%%%%OO+.+%O@%%%%OO+.@%++.XOOOOXX@@%++.XOOOOX@@XXXX%%%%%@%+.X@@OOOO@@@%%OO+.+%%@%++X@@@@@@%%%+%@X.$%",
"@%+.+XO.++%O@%+.+XO.+@@XXXX%%%%@@%@@XXXX%%%%@%%@%%%%%@@%@%++X@@@@@@%%%.+XO.++%@@@XXX@%%%%O+.%O@O+#.%",
"@%++.XOOOOXX@%++.XOOO%%@@@@+++%@X.%%@@@@+++%@X.$%%.++%%@@@XXX@%%%%O+.%%%%%@@@@@%%%%OO+.+%O.+%@@O+.#%",
"@@XXXX%%%%@@@@XXXX%%%%@%.++%%%%@@X@@@XXX@%%%%O+.%%+.X%.@%%%%OO+.+%O.+%%.++%%%%@%+.+XO.++%O%%%%@@@@%%",
"%%@@@@%%@%%%%@@@%%%%%%@%+.X%.++X@X@%%%%OO+.+%O.+%%++X%+@%+.+XO.++%OOOX%+.X%.++@%++.XOOOOXX%.++%%%%@@",
"++%%%%@@X++.%%%%@@%.++%%++X%+o+X@X@%+.+XO.++%OOO@@XXXOX@%++.XOOOOXX@@@%++X%+o+@@XXXX%%%%@@%+.X%.++X@",
".X%.++X@X+.+%.++X@%+.X%@XXXOXXXX%%@%++%%%%@@@@%%@@@%%%O@@XXXX%%%%@@%%%@XXXOXXX%%@@@@+++%@X%++X%+o+X@",
"+X%+o+X@XXXX%+o+X@%++X%@@%%%OO@O+#@@XX%.++%%%%@@%%@%.+X%%@@@@+++%@X.$%@@%%%OO@O+#.%@%@@@%+@XXXOXXXX%",
"XXOXXXX%%%%@@XXXX%@XXXO%@%.+X@@O+.%%@@%+.X%.++X@%%@%+.X@@OOOO@@%%%OO@O%@%.+X@@O+.#%@%%%@%+@@%%%OO@O+",
"%%%OO@O+#.%@%OO@O+@@%%%%@%+.X@@OOOO@@@%++X%+o+X@%%@%++X@@@@@@%@%.+X@@O%@%+.%%%%@@@@%%@%%%%%@%.+X@@O+",
"%.+X@@O+.@%@%X@@O+%@%.+%@%++X@@@@@@%%%@XXXOXXXX%@@@@XXX@%%%%O%@%+.X@@O%@%++%.++%%%%@@X++.%%@%+.X@@OO",
"%+.X@@OOOO@@@X@@OO%@%+.@@@XXX@%%%%O+.%@@%%%OO@O+@@%%%%OO+.+%O%@%++X@@@@@@XX%+.X%.++X@X+.+%%@%++X@@@@",
"%++X@@@@@@%%%X@@@@%@%++@%%%%OO+.+%O.+%%@%.+X@@O+@@%+.+XO.++%O@@%%%%@@@@%%%%%++X%+o+X@XXXX%@@@XXX@%%%",
"@XXX@%%%%O+.%X@%%%@@@XX@%+%%%%@@@@%%@%%@%+.X@@OO@@%++.XOOOOXX@%%.++%%%@%+.+@XXXOXXXX%%%%@@@%%%%OO+.+",
"%%%OO+.+%O.+%OO+.+@%%%%@%+%.++%%%%@@X+%@%++X@@@@@@@XXXX%%%%@@@%%+.X%.+@%++.@@%%%OO@O+#.%@%@%+.+XO.++",
"+.+XO.++%OOOXXO.++@%+.+@@X%+.X%.++X@X+@@@XXX@%%%%%%@@@@+++%@X@%%++X%+o@@XXX%@%.+X@@O+.#%@%@%++.XOOOO",
"++.XOOOOXX@@@XOOOO@%++.%%@%++X%+o+X@XX@%%%%OO+.+%O.%@%+.X@@OO@@@XXXOXX%%@@@%@%+.X@@OOOO@@@@@XXXX%%%%",
"XXXX%%%%@@%%%X%%%%@@XXXX%%@XXXOXXXX%%%@%+.+XO.++%OO%@%++X@@@@%%@@%%%OO@O+#.%@%++X@@@@@@%%%%%@@@@+++%",
"%%%%@@@@%%@%%%%@@@%%@%%%%+@@%%%OO@O+#.@%++.XOOOOXX@@@@XXX@%%%%O%@%.+X@@O+.#@@@XXX@%%%%O+.%%%%OO@O+#.",
"%.++%%%%@@X++.%%%%@@X++.% %@%.+X@@O+.#@@XXXX%%%%@@%@%%%%OO+.+%O%@%+.X@@OOOO@%%%%OO+.+%O.+%%%%X@@O+.#",
"%+.X%.++X@X+.+%.++X@X+.+% %@%+.X@@OOOO%%@@@@++%%%%@@@@%%@%%%%%O%@%++X@@@@@@@%+.+XO.++%OOOX+.%X@@OOOO",
"%++X%+o+X@XXXX%+o+X@XXXX%@@%%@%%%%%%%@@@@%%@%%%%++%%%%@@X++.%XX@@@XXX@%%%%O@%++.XOOOOXX%%%%@@@@%%@%%",
"%@@@@%%@%%%%%@@XXXX%%%%@@%%@@X++.%.++%%%%@@X++.%.X%.+%%%%@@@@%%@%%%%@@@%%@%%%%XXX%%%%@@%.++%%%%@@X++",
"%@@@@%%@%%%%%@%OO@O+#.%@%++X@X+.+%+.X%.++X@X+.+%+X%+o%.++%%%%@@X++.%%%%@@X++.%@@@+++%@X%+.X%.++X@X+.",
"+%%%%@@X++.%%@%X@@O+.#%@%o+X@XXXX%++X%+o+X@XXXX%XXOXX%+.X%.++X@X+.+%.++X@X+.+%@@%%%OO@O%++X%+o+X@XXX",
"X%.++X@X+.+%@@@X@@OOOO@@@XXX%%%%@@XXXOXXXX%%%%@@%%%OO%++X%+o+X@XXXX%+o+X@XXXX%%@%.+X@@O@XXXOXXXX%%%%",
"X%+o+X@XXXX%%%%X@@@@@@%%%O@O+#.%@%@%%%OO@O+#.%@%%.+X@@XXXOXXXX%%%%@@XXXX%%%%@@%@%+.X@@O@@%%%OO@O+#.%",
"XOXXXX%%%%@@+.%X@%%%%O+.%@@O+.#%@%@%.+X@@O+.#%@%%+.X@@@%%%OO@O+#.%@%OO@O+#.%@%%%%@@@@%%%@%.+X@@O+.#%",
"%%OO@O+#.%@%.+%OO+.+%O.+%@@OOOO@@@@%+.X@@OOOO@@@%++X@%@%.+X@@O+.#%@%X@@O+.#%@%.++%%%%@@%@%+.X@@OOOO@",
".+X@@O+.#%@%OOXXO.++%OOOX@@@@@@%%%@%++X@@@@@@%%%@XXX@%@%+.X@@OOOO@@@X@@OOOO@@%+.X%.++X@%@%++X@@@@@@%",
"+.X@@OOOO@%%%%@@@@%%@%%%%%%@@@@%%%%%%%@@@@%%@%%%%%%OO%@%++X@@@@@@%%%X@@@@@@%%%++X%+o+X@@@@XXX@%%%%O+",
"+%%%%@@@@%%.++%%%%@@X++%%%%%@@@@%%%%%%%@@@@%%@%%%%+XO@@@XXX@%%%%O+.%X@%%%%O+.@XXXOXXXX%@%%%%OO+.+%O.",
"X%.++%%%%@%+.X%.++X@X+.%%.++%%%%@%%%.++%%%%@@X++.%%%%@%%%%OO+.+%O.+%OO+.+%O.+@@%%%OO@O+@%+.+XO.++%OO",
"%%+.X%.++X%++X%+o+X@XXX%%+.X%.++X%%%+.X%.++X@X+.+%%%.@%+.+XO.++%OOOXXO.++%OOO%@%.+X@@O+@%%%%%@@@@%%@",
".%++X%+o+X@XXXOXXXX%%%%@%++X%+o+X@@%++X%+o+X@XXXX%%%+@%++.XOOOOXX@@@XOOOOXX@@%@%+.X@@OO@@%.++%%%%@@X",
"+@XXXOXXXX@@%%%OO@O+#.%@@XXXOXXXX@@@XXXOXXXX%%%%@@%%+@@XXXX%%%%@@%%%X%%%%@@%%%@%++X@@@@%%%+.X%.++X@X",
"@%%@%%%%@O%@%.+X@@O+.#%%@@%%%OO@O%%@@%%%OO@O+#.%@%@@X%%@@@@+++%@X.$%@+++%@X%.@@@XXX@%%%%O%++X%+o+X@X",
"%@@X++.%@O%@%+.X@@OOOO@%%@%.+X@@O%%%@%.+X@@O+.#%@%@@@%%%OO@O+#%%%%@@@@%%@%%%+@%%%%OO+.+%O@XXXOXXXX%%",
"+X@X+.+%@O%@%++X@@@@@@%%%@%+.X@@O%%%@%+.X@@OOOO@@@%%@%.+X@@O+.%.++%%%%@@X++%+@%+.+XO.++%O@@%%%OO@O+#",
"+X@XXXX%@@@@@XXX@%%%%O+@%@%++X@@@@@%@%++X@@@@@@%%%%%@%+.X@@OOO%+.X%.++X@X+.@X@%++.XOOOOXX%@%.+X@@O+.",
"XX%%%%@@%%@%%%%OO+.+%O.@@@@XX%%%%@@@@%%@%%%%%%O+.%%%@%++X@@@@@%++X%+o+X@XXX@@@@XXXX%%%%@@%@%+.X@@OOO",
"@O+#.%@%+.@%+.+XO.++%OO@@%%%%%.++%%%%@@X++.%+%O.+%@@@@XXX@%%%%@XXXOXXXX%%%%%@%%@@@@+++%@X%@%++X@@@@@",
"@O+.#%@%.+@%%%%@@@@%%@%%%%+.+%+.X%.++X@X+.+%+%OOOX@@%%%%OO+.+%@@%%%OO@O+#.%%@%+.X@@OOOO@@@@@XXX@%%%%",
"@OOOO@@@OO@%.++%%%%@@X++.%++.%++X%+o+X@X%%%%@@@@%%@%%%%+XO.++%%@%.+X@@O+.#%%@%++X@@%%%%@@@%%%%OO+.+%",
"@@@@@%%%%%%%+.X%.++X@X+.+%%%%@@@@%%@%%%%%.++%%%%@@X++.%.XOOOOX%@%+.X@@OO%%%%@@@@%%@%.++%%@%+.+XO.++%",
"%%%%O+.%++%%%%%%%@@@@%%@%%.++%%%%@@X++.%%+.X%.++X@%%%%@@@@%%@%%%%++X@@@@%.++%%%%@@X%+%%%%@%++.XOOOOX",
"+.+%O.+%   @%%.++%%%%@@X+%+.X%.++X@X+.+%%++X%+o+X@%.++%%%%@@X++.%XXX@%%%%+.X%.++X@X%+%.++@@XXXX%%%%@",
"%%@@@@%%@%%@%%+.X%.++X@X+%++X%+o+X@XXXX%@XXXOXXXX%%+.X%.++X@X+.+%%%OO+.+%++X%+o+X@X@X%+.X%%@@@@+++%@",
"++%%%%@@X++%%%++X%+o+X@XX@XXXOXXXX%%%%@@@@%%%O%%%%%++X%+o+X@XXXX%.+XO.++@XXXOXXXX%%@@%++X%+o+X@XXXX%",
".X%.++X@X+.%@@XXXOXXXX%%%@@%%%OO@O+#.%@%%@%.+X%.++@XXXOXXXX%%%%@@@@%%@%%@@%%%OO@O+#%@@XXXOXXXX%%%%@@",
"+X%+o+X@XXX%@@@%%%OO@O+#.%@%.+X@@O+.#%@%%@%+.X%+.X@@%%%OO@O%.++%%%%@@X++%@%.+X@@O+.%@@@%%%OO@O+#.%@%",
"XXOXXXX%%%%@%%@%.+X@@O+.#%@%+.X@@O%%%%@@%@%++X%++X%@%.+X@@O%+.X%.++X@X+.%@%+.X@@OOO%@%@%.+X@@O+.#%@%",
"%%%OO@O+#.%@%%@%+%%%%@@@@%%@%%%%@@%.++%%@@@XXX@XXX%@%+.X@@O%++X%+o+X@XXX%@%++X@@@@@@@%@%+.X@@OOOO@@@",
"%.+X@@O+.#%@%%@%+%.++%%%%@@X++.%%%%+.X%.@%%%%O@@%%%@%++X@@@@XXXOXXXX%%%%@@@XXX@%%%%@%%@%++X@@@@@@%%%",
"%+.X@@OOOO@@@@@@X%+.X%.++X@X+.+%+.%++X%+@%+.+X%@%.@@@XXX@%%@@%%%OO@O+#.%@%%%%OO+.+%@%@@@XXX@%%%%O+.%",
"%++X@@@@@@%@@@%%%%++X%+o+X@XXXX%.+@XXXOX@%++.X%@%+@%%%%OO+.%@%.+X@@O+.#%@%+.+XO.++%@%@%%%%OO+.+%O.+%",
"@XXX@%%%%O+%@@%+.@XXXOXXXX%%%%@@OO@@%%%O@@XXXX%@%+@%+.+XO.+%@%+.X@@OOOO@@%++.XOOOOX@@@%+.+XO.++%OOOX",
"%%%O%%%%@@@@%%@%%%%%%%OO@O+#.%@%%%%@%.+X%%@@@@@@@X@%++.XOOO%@%++X@@@@@@%@@XXXX%%%%%%%@@@@%%@%%%%X@@@",
"+%%%%@@@@%%@%%%%+.%%.+X@@O+.#%@%++%@%+.X@@OOOO@%%%@@XXXX%%%@@@XXX@%%%%%%%%@@@@%%@%%%%%%%%%%%%@@@@%%@",
"+%.++%%%%@@X++.%.+%%+.X@@OOOO@@@  %@%++X@@@@@@@%+.%%@@@@+++@%%%%OO+.+%%.++%%%%@@X++.%%.++%.++%%%%@@X",
"X%+.X%.++X@X+.+%XX%%%%%%@@@@%%@%%%@@@XXX@%%%%O@%++.XOOOOXX@@%%%%%@@@@%%@%%%%++X@X+.+%%+o+%+.X%.++X@X",
"%%@@@@%%@%%%%XX%%@@@%.++%%%%@@X++.%%%%@@@@%%@%%%%XXX%%%%@@%@%%.++%%%%@@X++.%o+X@XXXX%OXXX%++X%+o+X@X",
"++%%%%@@X++.%%@@%@%%%+.X%.++X@X+.+%.++%%%%@@X++.%%%%@@@@%%@%%%%.X%.++X@X+.+%XXX%%%%@@%OO@@XXXOXXXX%%",
".X%.++X@X+.+%%@%%@%+%++X%+o+X@XXXX%+.X%.++X@X+.+%.++%%%%@@X++.%+X%+o+X@XXXX%O@O+#.%@%@%%%%@%%%OO@O+#",
"+X%+o+X@XXX%%%%@@@@%%@%%%%XXX%%%%@%++X%+o+X@XXXX%+.X%.++X@X+.+%XXOXXXX%%%%@@@@O+.#%@%%@%%%%%.+X@@O+.",
"XXOXXXX%%%%%.++%%%%@@X++.%O@O+#.%@@XXXOXXXX%%%%@@++X%+o+X@XXXX%%%%OO@O+#.%@%@@OOOO@@@%@%%%%%+.X@@OOO",
"%%%OO@O+#.%%+.X%.++X@X+.+%@@O+.#%@@@%%%OO@O+#.%@%XXXOXXXX%%%%@@%.+X@@O+.#%@%@@@@@@%%%@X++.%%++X@@@@@",
"%.+X@@O+.#%%++X%+o+X@XXXX%@@OOOO@@%@%.+X@@O+.#%@%@%%%OO@O+#.%@%%+.X@@OOOO@@@@%%%%O+.%@X+.+%@XXX@%%%%",
"%+.%%%%@@@@@XXXOXXXX%%%%@@@@@@@@%%%%%@@@@%%@%%%%@@%.+X@@O+.#%@%%++X@@@@@@%%%O+.+%O.+%@XXXX%%%%OO+.+%",
"%++%.++%%%%@@%%%OO@O+#.%@%@%%%%%@@@@%%@%%%%X++.%%@%+.X@@OOOO@@@@XXX@%%%%O+.%O.++%OOOX%%%%@@+%%%%@@@@",
"@XX%+.X%.++%@%.+X@@O+.#%@%O+%%%%%@@@@%%@%%%%+.+%%@%++X@@@@@@%%%%%%OO+.+%O.+%OOOOXX@@@+#.%@%+%.++%%%%",
"%%%%++X%+o+%@%+.X@@OOOO@@@O.%%.++%%%%@@X++.%XXX%%@@XXX@%%%%O+.%+.+XO.++%OOOX%%%%@@%%%+.#%@%X%+.X%.++",
"+.+@XXXOXXX%@%++X@@@@@@%%%OO%%+.X%.++X@X+.+%%%@@X%%%%OO+.+%O%%%%@@@@%%@%%%%@+++%@X.$%OOO@@@@%++X%+o+",
"++.@@%%%OO@@@@XXX@%%%%O+.%%%%%++X%+o+X@XXXX%.%%%%%@@@@%%@%%%%.++%%%%@@X++.%%%@%++X@@@@@@%%% @XXXOXXX",
"%%@%%%%+X@@@%%%%OO+.+%O.+%++@@XXXOXXXX%%%%@@#%%.++%%%%@@X++.%+.X%%%%%@@@@%%@%%%%XX@%%%%O+.% @@%%%OO@",
"@@X++.%.X@@@%+.+XO.++%OOOX  @@@%%%OO@O+#.%@%O@%+.X%.++X@X+.+%++X%%.++%%%%@@X++.%%%@@@@%%@%%%%@@@%%@%",
"%%%%@@@@%%@@%++.XOOOOXX@@@@%%%@%.+X@@O+.#%@%@%%++X%+o+X@XXXX@XXXO%+.X%.++X@X+.+%++%%%%@@X++.%%%%@@X+",
"%.++%%%%@@X@@XXXX%%%%@@%%%X+%%@%+.X@@OOOO@@@O+@XXXOXXXX%%%%@@@%%%%++X%+o+X@XXXX%.X%.++X@X+.+%.++X@X+",
"%+.X%%%%%%%%%@@@@+++%@X.$%X+%%@%++X@@@@@@%%%O.@@%%%OO@O+#.%%%%@@@@XXXOXXXX%%%%@@+X%+o+X@XXXX%+o+X@XX",
"%++X%%.+%.++%%%%%++X%+o+X@XX@@@@XX%%%%@@@@%%@%%@%.+X@@O+.#%.++%%%@@%%%%@@@@%%@%%%%OXXXX%%%%@@XXXX%%%",
"@XXXO%+.%+.X%.++@XXXOXXXX%%%@%%%%@@@@%%@%%%%%+%@%+.X@@OOOO%+.X%.+%@%.++%%%%@@X++.%%OO@O+#.%@%OO@O+#.",
"@@%%%%++%++X%+o+@@%%%OO@O+#.@%.++%%%%@@X++.%%+%%%%%@@@@%%@%++X%+o%@%+.X%.++X@X+.+%+X@@O+.#%@%X@@O+.#",
"%@%.+@XX@XXXOXXX%@%.+X@@O+.#@%+.X%.++X@X+.+%%X@%.++%%%%@@X@XXXOXX%@%++X%+o+X@XXXX%.X@@OOOO@@@X@@OOOO",
"%@%+.@@%@@%%%OO@%@%+.X@@OOOO@%++X%+o+X@XXXX%%%@%+.X%.++X@X@@%%%OO@@@XXXOXXXX%%%%@@+X@@@@@@%%%X@@@@@@",
"%@%++%@%%@%.+X@@%@%++X@@@@@@%@XXXOXXXX%%%%@@@.@%++X%+o+X@X%@%.+X@@%@@%%%OO@O+#.%@%XX@%%%%O+.%X@%%%%O",
"@@@XX%@%%@%+.X@@@@@XXX@%%%%O+@@%%%OO@O+#.%@%%#@@XXXOXXXX%%%@%+.X@@%%@%.+X@@O+.#%@%%OO+.+%O.+%OO+.+%O",
"@%%%%%@%%@%++X@@@%%%%OO+.+%O.%@%.+X@@O+.#%@%%O@@@%%%OO@O+#%@%++X@@%%@%+.X@@OOOO@@@+XO.++%OOOXXO.++%O",
"@%+.+@@@@@@XXX@%@%+.+XO.++%OO%@%+.X@@OOOO@@@@@%%@%.+X@@O+.@@@XXX@@@%@%++X@@@@@@%%%.XOOOOXX@@@XOOOOXX",
"@%++.@%%@%%%%OO+@%++.XOOOOXX@%@%++X@@@@@@%%%%O+%@%+.X@@OOO@%%%%OO%%@@@XXX@%%%%O+.%XX%%%%@@%%%X%%%%@@",
"@@XXX@%+@%+.+XO.@@XXXX%%%%@@%@@@XXX@%%%%O+.%%O.%@%++X@@@@@@%+.+XO.+@%%%%OO+.+%O.+%@@+++%@X.$%@+++%@X"
};
