/* XPM */
static char *result[] = {
/* columns rows colors chars-per-pixel */
"32 32 4 1 ",
"  c #F73910",
". c #8C7318",
"X c #FFB762",
"o c None",
/* pixels */
"oooooooooooooooooooooooooooooooo",
"oooooooooooooooooooooooooooooooo",
"oooooooooooooooooooooooooooooooo",
"oooooooooooooooooooooooooooooooo",
"oooooooooooooooooooooooooooooooo",
"ooooooooooooo         oooooooooo",
"ooooooooooooo         oooooooooo",
"oooooooo                oooooooo",
"oooooooooooXX..XXXX....Xoooooooo",
"oooooooooooXX..XXXX.....oooooooo",
"ooooooooXXXXX..XXXXX..XX.ooooooo",
"ooooooooXXXXX..XXXXX..XX..oooooo",
"ooooooXXXXX..XXXXXX...XX..oooooo",
"ooooooXXXXX..XXXXXX...XX..oooooo",
"oooooooo.......XXXXXXX....oooooo",
"oooooooo.......XXXXXXX...ooooooo",
"ooooooooooXXXXXXXXXXXXoooooooooo",
"oooooooooooooX....XXX...oooooooo",
"ooooooooooooo...... ....oooooooo",
"oooooooo.....  .... .....ooooooo",
"oooooooo.....  .... ......oooooo",
"oooooo.......       .......ooooo",
"oooooo.......       .......ooooo",
"ooooooXXXX.  XX   XXX ..XXXooooo",
"ooooooXXXX.  XX   XX  ..XXXooooo",
"ooooooXXXXXX          XXXXXooooo",
"ooooooXXXXX           XXXXXooooo",
"ooooooXXXX              XXXooooo",
"oooooooooX     ooo      oooooooo",
"oooooooooo     oooo     oooooooo",
"oooooooo.....ooooooo......oooooo",
"oooooooo.....ooooooo......oooooo"
};
