/* XPM */
static char *result[] = {
/* columns rows colors chars-per-pixel */
"32 32 4 1 ",
"  c #F73910",
". c #8C7318",
"X c #FFB762",
"o c None",
/* pixels */
"oooooooooooooooooooooooooooooooo",
"oooooooooooooooooooooooooooooooo",
"oooooooooooooooooooooooooooooooo",
"oooooooooooooooooooooooooooooooo",
"oooooooooooooooooooooooooooooooo",
"oooooooooo         ooooooooooooo",
"oooooooooo         ooooooooooooo",
"oooooooo                oooooooo",
"ooooooooX....XXXX..XXooooooooooo",
"oooooooo.....XXXX..XXooooooooooo",
"ooooooo.XX..XXXXX..XXXXXoooooooo",
"oooooo..XX..XXXXX..XXXXXoooooooo",
"oooooo..XX...XXXXXX..XXXXXoooooo",
"oooooo..XX...XXXXXX..XXXXXoooooo",
"oooooo....XXXXXXX.......oooooooo",
"ooooooo...XXXXXXX.......oooooooo",
"ooooooooooXXXXXXXXXXXXoooooooooo",
"oooooooo...XXX....Xooooooooooooo",
"oooooooo.... ......ooooooooooooo",
"ooooooo..... ....  .....oooooooo",
"oooooo...... ....  .....oooooooo",
"ooooo.......       .......oooooo",
"ooooo.......       .......oooooo",
"oooooXXX.. XXX   XX  .XXXXoooooo",
"oooooXXX..  XX   XX  .XXXXoooooo",
"oooooXXXXX          XXXXXXoooooo",
"oooooXXXXX           XXXXXoooooo",
"oooooXXX              XXXXoooooo",
"oooooooo      ooo     Xooooooooo",
"oooooooo     oooo     oooooooooo",
"oooooo......ooooooo.....oooooooo",
"oooooo......ooooooo.....oooooooo"
};
