/* XPM */
static char *fbbfd208ce50418ce22b292a1707c9f4qeBA1lJTTglHLQA0[] = {
/* columns rows colors chars-per-pixel */
"32 32 4 1 ",
"  c black",
". c #7C0800",
"X c #C84C0C",
"o c #FC9838",
/* pixels */
"ooooooooooooooooooooooooooooo.  ",
"oooooooXoXooooooooXoXoooooooXoXX",
"XXoooooXX..oooooo..XXoooooXXoooo",
"oooXXooooooooooooooooooXXooooooo",
"XooooooooooooXXooooooooooooXoooo",
"oooXXXoooooXXooXXoooooXXXoooXoXX",
"ooXoXX..ooooXooXoooo..XXoXoooo..",
"oo....oooXooooooooXooo....oooooX",
"ooo.XooooooooooooooooooX.oooooX.",
"oooooooooXooooooooXooooooooooo..",
"ooooooooXoXooooooXoXooooooooooXX",
"oXXoooooX..XooooX..XoooooXXooooo",
"XooXooooooooXooXooooooooXooXoooo",
"X...XooooooooooooooooooX...Xoooo",
"oXXXooooooooooooooooooooXXXooooo",
"oooooooooooooooooooooooooooooooo",
"ooooooooooooooooooooooooooooo.oo",
"oooooooXXooXXooXXooXXooooooooooo",
"ooooooooo..oooooo..ooooooooooooX",
"oooXoXooooooooooooooooXoXooooooo",
"ooX..oooooooooooooooooo..Xoooooo",
"oooooXXooooooooooooooXXooooooooX",
"oooooooooooooooooooooooooooooooo",
"oXXoXXXXoooXooooXoooXXXXoXXooooo",
"oo.oooX.XooooooooooX.Xooo.oooooo",
"X..XXX..XooooooooooX..XXX..Xoooo",
"oooX.....o.oooooo.o.....Xooooooo",
"oooooX.XooooooooooooX.Xooooooooo",
"oooooXoooooXooooXoooooXooooooooX",
"ooooo..ooo.o.oo.o.ooo..oooooooo.",
"ooooooooooo..oo..ooooooooooooooo",
"oooooooooooooooooooooooooooooooo"
};
