/* XPM */
static char *_6153af415624156d96525520ff9079fjerRGrrt1HvbI8cb[] = {
/* columns rows colors chars-per-pixel */
"32 32 8 1 ",
"  c #263627",
". c #004012",
"X c #3B4A3C",
"o c #008024",
"O c #00C237",
"+ c #4FA24D",
"@ c #4FA34E",
"# c #00FF48",
/* pixels */
"++##+#######++++##+####OO####++.",
"##++.OO # OO####++.OO # .# O####",
"OO.+.O O#O .# OO.+.O O#O.#OX# OO",
"XO.+....#OO.#OXO.+....#..o..#O .",
"...####++...o....####++###oo#OO.",
"o+oO+ #+#+###oo+oO+ #+## O.++...",
"++oO +#+#+# O.++oO +#+##O .+++##",
"++oooo++++#O .++oooo+++#OO.+#+# ",
"++++++###+#OO.++++++###+...+#+#O",
"##++++#######++++##+######oo#+#O",
"###++++#######++++##+####O.o+++.",
" OO####+### OO####++.OO ####+###",
"O .# OO.###O .# OO.+.O O### +#O ",
"OO.#OXO.++#OO.#OXO.+....###O+#OO",
"...o....+++...o....####++##O++..",
"+###oo+o##++###oo+oO+ #+#++.##++",
"+# O.++o###+# O.++oO +#+#+++###o",
"+#O .++o###+#O .++oooo+++##+# O.",
"+#OO.+++++#+#OO.++++++#####+#O .",
"++..####++++##+######oO ###+#OO.",
"##### OO####++.OO #O#o O#++++...",
"#O O#O .# OO.+.O O#O#ooo.++####o",
"#OO #OO.#OXO.+.####++++##+####O.",
"####++++##+##### OO####++.OO # .",
"# OO####++.OO ##O .# OO.+####+++",
"#O .# OO.+.O O##OO.#OXO.+# OO###",
"#OO.#OXO.+....#+...o....##O .# O",
"+...o....####++++###o#####OO.#OX",
"++###oo+oO@ #+##+# O.# OO+...o..",
"#+# O.++oO @#+##+#O .#O .++###oo",
"#+#O .++o####++#+#OO.#OO.#+# O.+",
"##+####++# OO##+++...+...#+#O .+"
};
