/* XPM */
static char *result[] = {
/* columns rows colors chars-per-pixel */
"32 32 140 2 ",
"   c #566700",
".  c #596700",
"X  c #6C6300",
"o  c #6B6E02",
"O  c #706500",
"+  c #766800",
"@  c #7C6B02",
"#  c #737000",
"$  c #73710B",
"%  c #7B710F",
"&  c #7C7212",
"*  c #777719",
"=  c #7D7719",
"-  c #75781A",
";  c red",
":  c #FF0D00",
">  c #F61400",
",  c #FC1500",
"<  c #F71B00",
"1  c #F91D00",
"2  c #F62700",
"3  c #FA2100",
"4  c #F72D04",
"5  c #FD2A04",
"6  c #FF270E",
"7  c #FF2808",
"8  c #EB3600",
"9  c #E23F00",
"0  c #FF3205",
"q  c #F6350C",
"w  c #FD330E",
"e  c #F53A0F",
"r  c #FF3B0F",
"t  c #FC3311",
"y  c #F63B11",
"u  c #FD3D13",
"i  c #806E02",
"p  c #846E0B",
"a  c #99690C",
"s  c #847103",
"d  c #8C7803",
"f  c #88700E",
"g  c #8E780E",
"h  c #907A0D",
"j  c #9E6E17",
"k  c #867011",
"l  c #8B7316",
"z  c #847519",
"x  c #8D7318",
"c  c #83781D",
"v  c #897F19",
"b  c #907717",
"n  c #977D15",
"m  c #92751A",
"M  c #997019",
"N  c #947919",
"B  c #AD6E15",
"V  c #B86A1D",
"C  c #9B7C23",
"Z  c #A37F2B",
"A  c #DB4805",
"S  c #DA4B08",
"D  c #CB560C",
"F  c #D8510F",
"G  c #C45E13",
"H  c #CC5C15",
"J  c #C95F18",
"K  c #D35714",
"L  c #DD5214",
"P  c #E5440A",
"I  c #E8420B",
"U  c #EC4714",
"Y  c #E84913",
"T  c #F44314",
"R  c #FD4216",
"E  c #F54B12",
"W  c #F7461A",
"Q  c #FA451A",
"!  c #F74C1E",
"~  c #F84D1F",
"^  c #C76219",
"/  c #D8601F",
"(  c #FC4E21",
")  c #F75726",
"_  c #FF5324",
"`  c #F75927",
"'  c #F85920",
"]  c #DD7127",
"[  c #C47D31",
"{  c #FA642E",
"}  c #F96530",
"|  c #F86C34",
" . c #EE7436",
".. c #FA773B",
"X. c #F67F3F",
"o. c #FA793C",
"O. c #FC7F40",
"+. c #9E811B",
"@. c #A2851C",
"#. c #97812A",
"$. c #A8822F",
"%. c #AD892B",
"&. c #AD8533",
"*. c #B38937",
"=. c #B68A39",
"-. c #BB8D3B",
";. c #B6903E",
":. c #C49240",
">. c #C99645",
",. c #CD9846",
"<. c #DF9145",
"1. c #D09A47",
"2. c #D59C4C",
"3. c #DA9F4D",
"4. c #E98842",
"5. c #FA8242",
"6. c #F38C47",
"7. c #F78E48",
"8. c #FA8F4A",
"9. c #FE954E",
"0. c #DBA14E",
"q. c #DFA351",
"w. c #DEAA55",
"e. c #E0A34F",
"r. c #E4A553",
"t. c #E7A855",
"y. c #EAAA57",
"u. c #EDAC58",
"i. c #F4A656",
"p. c #FEA356",
"a. c #F4AF5C",
"s. c #F4B15C",
"d. c #FBB25F",
"f. c #FEB661",
"g. c #FFBA64",
"h. c #FFBF68",
"j. c #FFC46A",
"k. c #FFCC6D",
"l. c #FFD572",
"z. c None",
/* pixels */
"z.z.z.z.z.z.z.z.z.z.z.z.z.z.z.z.z.z.z.z.z.z.z.z.z.z.z.z.z.z.z.z.",
"z.z.z.z.z.z.z.z.z.e y e e y u y 2 5.z.z.z.z.z.z.z.z.z.z.z.z.z.z.",
"z.z.z.z.z.z.z.z.e R e y u u R u 0 | z.z.z.z.z.z.z.z.z.z.z.z.z.z.",
"z.z.z.z.z.z.z.( 7 t w 6 1 > > < t 7 : 5 R 0 { z.z.z.z.z.z.z.z.z.",
"z.z.z.z.z.z.z.] H J J J O.8.8.5.D / 9.5.z.z.` z.z.z.z.z.z.z.z.z.",
"z.z.z.z.z.z.z.v o c $ X y.h.h.s.$ #.k.j.z.z.z.z.z.z.z.z.z.z.z.z.",
"z.z.z.z.z.z.2.e.=.p ;.>.f.f.f.u.f Z h.d.z.z.f.z.z.z.z.z.z.z.z.z.",
"z.z.z.z.z.d 1.j.q.X y.j.f.f.g.u.+ C g.h.j.j.l.z.z.z.z.z.z.z.z.z.",
"z.z.z.z.z.@ ,.h.2.@ &.=.u.g.f.f.t.r.&.2.g.d.g.d.g.z.z.z.z.z.z.z.",
"z.z.z.z.z.i >.j.0.O @ O y.g.f.g.j.f.X -.j.g.g.j.j.z.z.z.z.z.z.z.",
"z.z.z.z.z.x C -.,.r.r.r.f.f.f.s.=.&.k $.-.-.>.u.z.z.z.z.z.z.z.z.",
"z.z.z.z.z.x x X :.h.f.g.f.f.g.u.@ k m k p @ C z.z.z.z.z.z.z.z.z.",
"z.z.z.z.z.z.z.z.z.k.g.g.g.g.g.f.f.f.g.g.k.z.z.z.z.z.z.z.z.z.z.z.",
"z.z.z.z.z.z.z.z.3.s.i.p.i.y.y.y.y.a.f.g.f.z.z.z.z.z.z.z.z.z.z.z.",
"z.z.z.z.z.z.z.%.f $ A 1 a & p k # ;.z.z.z.z.z.z.z.z.z.z.z.z.z.z.",
"z.z.z.z.z.z.=.C l c L u M x x M B [ z.z.z.z.z.z.z.z.z.z.z.z.z.z.",
"z.z.z.z.z.N k l x = L t m * * j w T x x m k %.z.z.z.z.z.z.z.z.z.",
"z.z.z.z.m x m x x z L t K G G K t U x x x x C =.z.z.z.z.z.z.z.z.",
"z.z.z.p h p k x x - S , q t w w 1 8 z z l p @ s g z.z.z.z.z.z.z.",
"z.z.z.t.y.u.:.% V 9 6.p.` 4 q ` p.9.P ^ & :.u.t.y.z.z.z.z.z.z.z.",
"z.z.z.g.j.h.3.  G ; p.k.} 4 4 } j.d.6 F . r.h.g.g.z.z.z.z.z.z.z.",
"z.z.z.f.h.d.d.w.4.> | ..Q q q Q o.{ >  .w.a.f.g.f.z.z.z.z.z.z.z.",
"z.z.z.g.h.f.f.h.9.> 4 > q e y q > q > O.h.f.f.f.f.z.z.z.z.z.z.z.",
"z.z.z.f.j.j.9.y ( e T y w u u u T y y W y p.j.j.j.z.z.z.z.z.z.z.",
"z.z.z.g.d.h.8.1 y y e Q ~ q y e e e y y < 9.h.f.f.z.z.z.z.z.z.z.",
"z.z.z.z.z.z.z._ 4 t w R z.z.z.z.r u t q u z.z.z.z.z.z.z.z.z.z.z.",
"z.z.z.z.z.z.<.' P Y e Q z.z.z.z.( q Y Y E z.z.z.z.z.z.z.z.z.z.z.",
"z.z.z.z.z.N l x x N z.z.z.z.z.z.z.z.x x x k %.z.z.z.z.z.z.z.z.z.",
"z.z.z.z.x x l x x N z.z.z.z.z.z.z.z.x x x l C *.z.z.z.z.z.z.z.z.",
"z.z.z.x @.N N N N +.z.z.z.z.z.z.z.z.N N N N x n @.z.z.z.z.z.z.z.",
"z.z.z.z.z.z.z.z.z.z.z.z.z.z.z.z.z.z.z.z.z.z.z.z.z.z.z.z.z.z.z.z.",
"z.z.z.z.z.z.z.z.z.z.z.z.z.z.z.z.z.z.z.z.z.z.z.z.z.z.z.z.z.z.z.z."
};
