/* XPM */
static char *_071f0ea9bbe4c82fbd79e01978f6e00hh4PlSpjjFcsms5f[] = {
/* columns rows colors chars-per-pixel */
"24 26 18 1 ",
"  c None",
". c #2F2F2E",
"X c #32322F",
"o c #3B3B39",
"O c #741A33",
"+ c #4F2437",
"@ c #624023",
"# c #69483A",
"$ c #535A48",
"% c #9E293B",
"& c #916451",
"* c #E59363",
"= c #285DAA",
"- c #2D6AC5",
"; c #7E8590",
": c #9299A4",
"> c #FFD19C",
", c #F1F0FD",
/* pixels */
"                        ",
"                        ",
"                        ",
"                        ",
"        ......          ",
"       .##&&&&.         ",
"      .####&&&&.        ",
"      .#####&&&&.       ",
"     .###**#&*#&.       ",
"     .#*####*##.        ",
"     .#**,,$*,$.        ",
"      .#**>>>>>.        ",
"       .O******.        ",
"      ..OOOOOO%.        ",
"     .===OO%%%==.       ",
"    .=---==@#=--=.      ",
"   .@#=.-=;:+=.-=.      ",
"   .@#>.=@#=+=.->#.     ",
"   .>..@@#=+++=.@#.     ",
"    ..#@#=@:::=..>.     ",
"     .#@Xoooooo. .      ",
"      ..Xoo.Xoo.        ",
"       .@#. .@#.        ",
"        ..   ..         ",
"                        ",
"                        "
};
