/* XPM */
static char *result[] = {
/* columns rows colors chars-per-pixel */
"32 32 18 1 ",
"  c #2F2F2E",
". c #32322F",
"X c #3B3B39",
"o c #741A33",
"O c #4F2437",
"+ c #624023",
"@ c #69483A",
"# c #535A48",
"$ c #9E293B",
"% c #916451",
"& c #E59363",
"* c #285DAA",
"= c #2D6AC5",
"- c #7E8590",
"; c #9299A4",
": c #FFD19C",
"> c #F1F0FD",
", c None",
/* pixels */
",,,,,,,,,,,,,,,,,,,,,,,,,,,,,,,,",
",,,,,,,,,,,,,,,,,,,,,,,,,,,,,,,,",
",,,,,,,,,,,,,,,,,,,,,,,,,,,,,,,,",
",,,,,,,,,,,,,,,,,,,,,,,,,,,,,,,,",
",,,,,,,,,,,,,,,,,,,,,,,,,,,,,,,,",
",,,,,,,,,,,,,,,,,,,,,,,,,,,,,,,,",
",,,,,,,,,,,,,,,,,,,,,,,,,,,,,,,,",
",,,,,,,,,,,,,,,,,,,,,,,,,,,,,,,,",
",,,,,,,,,,,,,,,,,,,,,,,,,,,,,,,,",
",,,,,,,,,,,,,,,,,,,,,,,,,,,,,,,,",
",,,,,,,,,,,,,,,,,,,,,,,,,,,,,,,,",
",,,,,,,,,,,,      ,,,,,,,,,,,,,,",
",,,,,,,,,,, @@%%%% ,,,,,,,,,,,,,",
",,,,,,,,,, @@@@%%%% ,,,,,,,,,,,,",
",,,,,,,,,, @@@@@%%%% ,,,,,,,,,,,",
",,,,,,,,, @@@&&@%&@% ,,,,,,,,,,,",
",,,,,,,,, @&@@@@&@@ ,,,,,,,,,,,,",
",,,,,,,,, @&&>>#&># ,,,,,,,,,,,,",
",,,,,,,,,, @&&::::: ,,,,,,,,,,,,",
",,,,,,,,,,, o&&&&&& ,,,,,,,,,,,,",
",,,,,,,,,,  oooooo$ ,,,,,,,,,,,,",
",,,,,,,,, ***oo$$$** ,,,,,,,,,,,",
",,,,,,,, *===**+@*==* ,,,,,,,,,,",
",,,,,,, +@* =*-;O* =* ,,,,,,,,,,",
",,,,,,, +@: *+@*O* =:@ ,,,,,,,,,",
",,,,,,, :  ++@*OOO* +@ ,,,,,,,,,",
",,,,,,,,  @+@*+;;;*  : ,,,,,,,,,",
",,,,,,,,, @+.XXXXXX , ,,,,,,,,,,",
",,,,,,,,,,  .XX .XX ,,,,,,,,,,,,",
",,,,,,,,,,, +@ , +@ ,,,,,,,,,,,,",
",,,,,,,,,,,,  ,,,  ,,,,,,,,,,,,,",
",,,,,,,,,,,,,,,,,,,,,,,,,,,,,,,,"
};
