/* XPM */
static char *result[] = {
/* columns rows colors chars-per-pixel */
"32 32 47 1 ",
"  c #3C3A3A",
". c #3D3B3B",
"X c #3E3C3C",
"o c #3F3D3D",
"O c #403E3E",
"+ c #413F3F",
"@ c #424040",
"# c #444242",
"$ c #454444",
"% c #464444",
"& c #474545",
"* c #474646",
"= c #4B4A4A",
"- c #4C4B4B",
"; c #4E4D4D",
": c #504F4F",
"> c #514F4F",
", c #525050",
"< c #535353",
"1 c #545353",
"2 c gray33",
"3 c #555454",
"4 c #575656",
"5 c gray34",
"6 c #585858",
"7 c #5A5959",
"8 c #5A5A5A",
"9 c gray36",
"0 c #5D5C5C",
"q c #5D5D5D",
"w c gray37",
"e c gray39",
"r c #646363",
"t c #696868",
"y c #6C6C6C",
"u c #6F6E6E",
"i c gray46",
"p c gray47",
"a c #797979",
"s c #7A7979",
"d c #807F7F",
"f c #808080",
"g c gray52",
"h c gray53",
"j c #888888",
"k c #8D8D8D",
"l c #8E8E8E",
/* pixels */
"%7777777777777777777777,X%777777",
"7lkkkkkkkkkkkkkkkkkkkkksX7lkkkkk",
"4jhhhhhhhhhhhhhhhhhhhhhiX4jhhhhh",
"*wqqqqqqqqqqqqqqqqqqqqq2X*wqqqqq",
"*wwwwwwwwwwwwwwwwwwwwww3X*wwwwww",
"*wwwwwwwwwwwwwwwwwwwwww3X*wwwwww",
"*wwwwwwwwwwwwwwwwwwwwww3X*wwwwww",
"*wwwwwwwwwwwwwwwwwwwwww3X*wwwwww",
"*wwwwwwwwwwwwwwwwwwwwww3X*wwwwww",
"o++++++++++++++++++++++OXo++++++",
"           XX.                  ",
"ggggggggggg;.pgggggggggggggggggg",
"kkkkkkkkkkl>.dkkkkkkkkkkkkkkkkkk",
"yyyyyyyyyyy*Xeyyyyyyyyyyyyyyyyyy",
"wwwwwwwwwww#X5wwwwwwwwwwwwwwwwww",
"wwwwwwwwwww#X5wwwwwwwwwwwwwwwwww",
"wwwwwwwwwww#X5wwwwwwwwwwwwwwwwww",
"wwwwwwwwwww#X5wwwwwwwwwwwwwwwwww",
"wwwwwwwwwww#X5wwwwwwwwwwwwwwwwww",
":::::::::::+X-::::::::::::::::::",
"XXXXXXXXXXXXXXXXXXXXXXXXXXXXXXXX",
"ttr.@tttttttttttttttttt0X=tttttt",
"kkg *kkkkkkkkkkkkkkkkkkaX7kkkkkk",
"ffp.$ffffffffffffffffffuX1ffffff",
"ww8X+wwwwwwwwwwwwwwwwww3X*wwwwww",
"ww8X+wwwwwwwwwwwwwwwwww3X*wwwwww",
"ww8X+wwwwwwwwwwwwwwwwww3X*wwwwww",
"ww8X+wwwwwwwwwwwwwwwwww3X*wwwwww",
"ww8X+wwwwwwwwwwwwwwwwww3X*wwwwww",
"996X+999999999999999999<X&999999",
"XXXXXXXXXXXXXXXXXXXXXXXXXXXXXXXX",
"+++++++++++++oXO++++++++++++++++"
};
