/* XPM */
static char *result[] = {
/* columns rows colors chars-per-pixel */
"32 32 6 1 ",
"  c #72683E",
". c #DFB500",
"X c #E8C831",
"o c #F8D634",
"O c #FFF83A",
"+ c None",
/* pixels */
"++++++++++++++++++++++++++++++++",
"++++++++++++++++++++++++++++++++",
"++++++++++++++++++++++++++++++++",
"++++++++++++++++++++++++++++++++",
"++++++++++++++++++++++++++++++++",
"++++++++++++++++++++++++++++++++",
"++++++++++++++++++++++++++++++++",
"+++++++++++++      +++++++++++++",
"++++++++++++ OOO OO ++++++++++++",
"+++++++++++ OXXXO oo +++++++++++",
"++++++++++ OXoOoXO OO ++++++++++",
"++++++++++ OXoOoXO oo ++++++++++",
"++++++++++ OXoOoXO OO ++++++++++",
"+++++++++ OXOoOoOXO oo +++++++++",
"+++++++++ OXOoOoOXO OO +++++++++",
"+++++++++ XXOOOOOXX OO +++++++++",
"+++++++++ XX.oOo.XX oo +++++++++",
"+++++++++ XXXoOoXXX OO +++++++++",
"+++++++++ XXXoOoXXX oo +++++++++",
"++++++++++ XXoOoX. .. ++++++++++",
"++++++++++ .XoOoX. oo ++++++++++",
"++++++++++ .X...X. .. ++++++++++",
"+++++++++++ XXXX. oo +++++++++++",
"++++++++++++ ... .. ++++++++++++",
"+++++++++++++      +++++++++++++",
"++++++++++++++++++++++++++++++++",
"++++++++++++++++++++++++++++++++",
"++++++++++++++++++++++++++++++++",
"++++++++++++++++++++++++++++++++",
"++++++++++++++++++++++++++++++++",
"++++++++++++++++++++++++++++++++",
"++++++++++++++++++++++++++++++++"
};
